<?xml version="1.0" encoding="UTF-8"?>
<svg id="Layer_1" data-name="Layer 1" xmlns="http://www.w3.org/2000/svg" viewBox="0 0 512 512">
  <defs>
    <style>
      .cls-1 {
        fill: #0b0e12;
      }

      .cls-2 {
        fill: #fff;
      }
    </style>
  </defs>
  <rect class="cls-1" width="512" height="512" rx="56.39" ry="56.39"/>
  <g>
    <path class="cls-2" d="M283.62,462.97c-24.16,9.61-48.21,14.78-74.2,10.06,63.37-9.55,90.52-42.13,112.78-99.23l64.38-165.14,6.45-2.24c-4.61-55.5-37.34-102.7-86.84-128.42-59.26-30.79-131.45-28.54-188.69,6.14-43.43,26.32-71.44,69.97-76.12,120.59,7.94,3.08,12.48,9.83,11.83,17.08-.75,8.32-7.54,13.74-15,14.13-7.96.41-14.79-5.06-16.18-13-1.38-7.89,3.06-15.59,12.21-18.36,6.58-73.87,57.11-126.01,126.3-147.78l-99.28-.35c-2.87,8.75-10.26,12.61-17.8,11.42-7.39-1.17-12.95-7.51-12.93-15.3.02-7.29,5.46-13.7,12.82-15.09,8.24-1.55,14.74,3.33,18.64,11.7l310.58.03c3.33-8.57,9.8-12.95,17.46-11.81,7.6,1.13,13.86,7.4,13.66,15.22-.19,7.34-5.42,13.74-12.34,15.21-8.16,1.73-15.25-3-18.57-11.44l-99.49.39c70.83,21.34,121.12,76.22,127.06,150.47l14.63,1.21,75.23,190.7-33.07.32-56.46-148.92-52.88,142.07c-11.69,31.41-33.46,55.68-64.18,70.32ZM54.45,52.74c0-4.64-3.76-8.4-8.4-8.4s-8.4,3.76-8.4,8.4,3.76,8.4,8.4,8.4,8.4-3.76,8.4-8.4ZM396.5,52.78c0-4.64-3.76-8.4-8.39-8.4s-8.39,3.76-8.39,8.4,3.76,8.4,8.39,8.4,8.39-3.76,8.39-8.4ZM45.94,220.29c0-4.67-3.79-8.46-8.46-8.46s-8.46,3.79-8.46,8.46,3.79,8.46,8.46,8.46,8.46-3.79,8.46-8.46Z"/>
    <g>
      <path class="cls-2" d="M239.12,434.79c-61.66,24.61-146.87,3.7-168.57-68.8l39.72-17.94c8.98,21.01,22.12,39.09,43.59,48.46,21.15,9.23,45.87,9.07,66.92.25,17.09-7.17,26.73-22.76,27.3-39.52,1.81-53.59-71.52-51.41-123.39-81.04-27.31-15.6-42.11-43.23-41.18-74.63,1.85-62.46,61.27-95.13,117.35-85.2l-31.36,40.63c-14.22,3.22-26.61,9.64-33.42,20.83-7.67,12.61-9.15,28.36-2.29,41.64,5.71,11.06,16.05,19.54,27.75,24.22,55.89,22.35,129.5,31.21,132.9,104.59,1.79,38.51-18.94,71.99-55.33,86.51Z"/>
      <path class="cls-2" d="M254.82,185.18c-3.49-2.77.85-12.38-5.7-13.66-3.7-.72-9.09-1.3-13.03,2.78-2.44,2.53-2.97,8.14-.56,12.48,2.21,3.98,8.15,5.42,14.11,2.85l62.49,49.19c-34.17-7.38-65.75-15.88-100.5-21.54-5.66-22.14-16.73-42.19-34.73-57.25l31.04-39.67c19.8,14.16,41.69,21,65.15,21.36,7.35,18.38,15.16,35.43,23.73,52.81l19.38,39.33-61.38-48.69Z"/>
    </g>
  </g>
</svg>